<?xml version="1.0" standalone="no"?><!-- Generator: Gravit.io --><svg xmlns="http://www.w3.org/2000/svg" xmlns:xlink="http://www.w3.org/1999/xlink" style="isolation:isolate" viewBox="0 0 640 360" width="640" height="360"><defs><clipPath id="_clipPath_nUObg3jdhKTZRwNg80AYTuEOAxuWavbW"><rect width="640" height="360"/></clipPath></defs><g clip-path="url(#_clipPath_nUObg3jdhKTZRwNg80AYTuEOAxuWavbW)"><rect x="0" y="0" width="640" height="360" transform="matrix(1,0,0,1,0,0)" fill="rgb(255,255,255)"/><clipPath id="_clipPath_8UsZ5OdTIm3woRLZ8SNp4JNg0CVhyOwC"><rect x="0" y="0" width="640" height="360" transform="matrix(1,0,0,1,0,0)" fill="rgb(255,255,255)"/></clipPath><g clip-path="url(#_clipPath_8UsZ5OdTIm3woRLZ8SNp4JNg0CVhyOwC)"><g id="Group" filter="url(#9DK1T4WCNgwl7k42dkte7NAn1kIn8w0T)"><path d=" M 283.08484 209.13715 L 283.08484 209.13715 L 283.08484 209.13715 Q 282.8241 210.31046 282.69373 210.31046 L 282.69373 210.31046 L 282.69373 210.31046 Q 282.433 210.18009 282.36781 209.78898 L 282.36781 209.78898 L 282.36781 209.78898 Q 282.30263 209.39788 282.30263 209.13715 L 282.30263 209.13715 L 282.30263 209.13715 Q 281.91153 203.14024 283.08484 197.46925 L 283.08484 197.46925 L 283.08484 197.46925 Q 284.25814 191.79826 286.66994 186.32283 L 286.66994 186.32283 L 286.66994 186.32283 Q 289.08174 180.84739 292.40612 175.69787 L 292.40612 175.69787 L 292.40612 175.69787 Q 295.73049 170.54835 299.51115 165.72475 L 299.51115 165.72475 L 302.37923 162.07446 L 302.37923 162.07446 Q 297.03416 150.08065 291.88465 138.80385 L 291.88465 138.80385 L 291.88465 138.80385 Q 286.73513 127.52706 280.60785 119.31391 L 280.60785 119.31391 L 280.60785 119.31391 Q 280.21675 118.79244 280.21675 118.5317 L 280.21675 118.5317 L 280.21675 118.5317 Q 280.34712 118.27097 280.73822 118.5317 L 280.73822 118.5317 L 280.73822 118.5317 Q 281.12932 118.79244 281.39006 118.9228 L 281.39006 118.9228 L 281.39006 118.9228 Q 285.43145 122.18199 288.75582 126.61449 L 288.75582 126.61449 L 288.75582 126.61449 Q 292.0802 131.04699 294.94828 136.1965 L 294.94828 136.1965 L 294.94828 136.1965 Q 297.81637 141.34602 300.29335 147.01701 L 300.29335 147.01701 L 300.29335 147.01701 Q 302.77034 152.688 305.24732 158.42417 L 305.24732 158.42417 L 307.46357 155.68645 L 307.46357 155.68645 Q 306.81173 154.38278 305.37769 151.57987 L 305.37769 151.57987 L 305.37769 151.57987 Q 303.94364 148.77697 301.98813 145.25705 L 301.98813 145.25705 L 301.98813 145.25705 Q 300.03262 141.73712 297.88155 137.8261 L 297.88155 137.8261 L 297.88155 137.8261 Q 295.73049 133.91507 293.51424 130.46033 L 293.51424 130.46033 L 293.51424 130.46033 Q 291.29799 127.00559 289.34248 124.26787 L 289.34248 124.26787 L 289.34248 124.26787 Q 287.38697 121.53015 285.95292 120.35685 L 285.95292 120.35685 L 285.95292 120.35685 Q 284.90998 119.57464 285.30108 119.31391 L 285.30108 119.31391 L 285.30108 119.31391 Q 285.56182 119.18354 286.47439 119.44427 L 286.47439 119.44427 L 286.47439 119.44427 Q 289.08174 120.48721 292.01501 123.09456 L 292.01501 123.09456 L 292.01501 123.09456 Q 294.94828 125.70192 297.62082 128.9611 L 297.62082 128.9611 L 297.62082 128.9611 Q 300.29335 132.22029 302.5096 135.74022 L 302.5096 135.74022 L 302.5096 135.74022 Q 304.72585 139.26014 306.02952 142.12823 L 306.02952 142.12823 L 310.59239 151.90579 L 312.02643 150.34138 L 312.02643 150.34138 Q 309.41908 144.47484 306.42063 138.47794 L 306.42063 138.47794 L 306.42063 138.47794 Q 303.42217 132.48103 299.25041 126.74486 L 299.25041 126.74486 L 299.25041 126.74486 Q 298.85931 126.09302 298.72894 126.09302 L 298.72894 126.09302 L 298.72894 126.09302 Q 298.59857 126.09302 298.85931 125.83228 L 298.85931 125.83228 L 298.85931 125.83228 Q 298.85931 125.83228 299.90225 126.35375 L 299.90225 126.35375 L 299.90225 126.35375 Q 303.55254 128.83074 307.46357 134.50173 L 307.46357 134.50173 L 307.46357 134.50173 Q 311.37459 140.17271 314.89452 146.95183 L 314.89452 146.95183 L 314.89452 146.95183 Q 321.54326 139.12977 328.19201 130.72107 L 328.19201 130.72107 L 328.19201 130.72107 Q 334.84075 122.31236 339.01251 114.75104 L 339.01251 114.75104 L 339.01251 114.75104 Q 339.14288 114.49031 339.27325 114.22957 L 339.27325 114.22957 L 339.27325 114.22957 Q 339.40362 113.96884 339.79472 114.22957 L 339.79472 114.22957 L 339.79472 114.22957 Q 339.92509 114.35994 339.8599 114.75104 L 339.8599 114.75104 L 339.8599 114.75104 Q 339.79472 115.14214 339.79472 115.27251 L 339.79472 115.27251 L 339.79472 115.27251 Q 337.83921 122.44273 333.53708 129.41739 L 333.53708 129.41739 L 333.53708 129.41739 Q 329.23495 136.39205 323.88988 143.23635 L 323.88988 143.23635 L 323.88988 143.23635 Q 318.54481 150.08065 312.67827 156.79458 L 312.67827 156.79458 L 312.67827 156.79458 Q 306.81173 163.50851 301.7274 170.15725 L 301.7274 170.15725 L 301.7274 170.15725 Q 298.59857 174.32901 295.53494 179.08743 L 295.53494 179.08743 L 295.53494 179.08743 Q 292.4713 183.84584 289.99432 188.86499 L 289.99432 188.86499 L 289.99432 188.86499 Q 287.51733 193.88414 285.69219 199.03366 L 285.69219 199.03366 L 285.69219 199.03366 Q 283.86704 204.18318 283.08484 209.13715 Z  M 343.31464 210.18009 L 343.31464 210.18009 L 343.31464 210.18009 Q 344.09685 210.57119 344.09685 210.63637 L 344.09685 210.63637 L 344.09685 210.63637 Q 344.09685 210.70156 343.18428 210.70156 L 343.18428 210.70156 L 343.18428 210.70156 Q 337.96957 209.91935 333.47189 207.24682 L 333.47189 207.24682 L 333.47189 207.24682 Q 328.97421 204.57428 325.12837 200.66326 L 325.12837 200.66326 L 325.12837 200.66326 Q 321.28253 196.75223 317.95816 191.86345 L 317.95816 191.86345 L 317.95816 191.86345 Q 314.63378 186.97466 311.89606 181.89033 L 311.89606 181.89033 L 311.89606 181.89033 Q 307.7243 186.8443 303.16144 191.60271 L 303.16144 191.60271 L 303.16144 191.60271 Q 298.59857 196.36113 294.94828 199.75068 L 294.94828 199.75068 L 294.94828 199.75068 Q 294.29645 200.40252 293.84016 200.92399 L 293.84016 200.92399 L 293.84016 200.92399 Q 293.38387 201.44546 293.12314 201.31509 L 293.12314 201.31509 L 293.12314 201.31509 Q 292.8624 201.18473 293.31869 200.40252 L 293.31869 200.40252 L 293.31869 200.40252 Q 293.77498 199.62032 294.03571 198.96848 L 294.03571 198.96848 L 294.03571 198.96848 Q 296.51269 194.14488 299.7067 189.45165 L 299.7067 189.45165 L 299.7067 189.45165 Q 302.9007 184.75842 306.48581 180.26074 L 306.48581 180.26074 L 306.48581 180.26074 Q 310.07092 175.76305 313.85158 171.33056 L 313.85158 171.33056 L 313.85158 171.33056 Q 317.63224 166.89806 321.28253 162.46556 L 321.28253 162.46556 L 321.28253 162.46556 Q 325.84539 156.85976 331.19046 149.95028 L 331.19046 149.95028 L 331.19046 149.95028 Q 336.53553 143.0408 340.44656 135.74022 L 340.44656 135.74022 L 340.44656 135.74022 Q 340.83766 134.82764 341.0984 134.82764 L 341.0984 134.82764 L 341.0984 134.82764 Q 341.35913 134.82764 341.22876 135.4143 L 341.22876 135.4143 L 341.22876 135.4143 Q 341.0984 136.00095 341.0984 136.39205 L 341.0984 136.39205 L 341.0984 136.39205 Q 340.83766 139.12977 339.14288 142.78006 L 339.14288 142.78006 L 339.14288 142.78006 Q 337.4481 146.43036 335.0363 150.40657 L 335.0363 150.40657 L 335.0363 150.40657 Q 332.6245 154.38278 329.8216 158.48935 L 329.8216 158.48935 L 329.8216 158.48935 Q 327.0187 162.59593 324.41135 166.11586 L 324.41135 166.11586 L 325.58466 168.72321 L 325.58466 168.72321 Q 328.71348 175.63269 331.97267 183.06364 L 331.97267 183.06364 L 331.97267 183.06364 Q 335.23186 190.49459 337.4481 196.36113 L 337.4481 196.36113 L 337.4481 196.36113 Q 337.70884 197.01297 337.90439 197.72999 L 337.90439 197.72999 L 337.90439 197.72999 Q 338.09994 198.44701 337.83921 198.57738 L 337.83921 198.57738 L 337.83921 198.57738 Q 337.70884 198.57738 337.18737 197.99072 L 337.18737 197.99072 L 337.18737 197.99072 Q 336.6659 197.40407 336.14443 196.75223 L 336.14443 196.75223 L 336.14443 196.75223 Q 331.58156 190.62496 327.99646 183.97621 L 327.99646 183.97621 L 327.99646 183.97621 Q 324.41135 177.32747 321.02179 170.28762 L 321.02179 170.28762 L 321.02179 170.28762 Q 319.45738 172.24313 317.89297 174.26383 L 317.89297 174.26383 L 317.89297 174.26383 Q 316.32856 176.28452 314.76415 178.37041 L 314.76415 178.37041 L 314.76415 178.37041 Q 317.24113 183.194 320.36996 187.95242 L 320.36996 187.95242 L 320.36996 187.95242 Q 323.49878 192.71084 327.14907 196.94778 L 327.14907 196.94778 L 327.14907 196.94778 Q 330.79936 201.18473 334.90594 204.63947 L 334.90594 204.63947 L 334.90594 204.63947 Q 339.01251 208.09421 343.31464 210.18009 Z  M 329.36532 148.90734 L 329.36532 148.90734 L 329.36532 148.90734 Q 324.28098 155.42572 318.15371 162.00928 L 318.15371 162.00928 L 318.15371 162.00928 Q 312.02643 168.59284 306.15989 174.45938 L 306.15989 174.45938 L 306.15989 174.45938 Q 305.89916 174.58975 305.11695 175.43714 L 305.11695 175.43714 L 305.11695 175.43714 Q 304.33475 176.28452 304.07401 176.02379 L 304.07401 176.02379 L 304.07401 176.02379 Q 303.81328 175.89342 304.26956 174.72011 L 304.26956 174.72011 L 304.26956 174.72011 Q 304.72585 173.54681 305.11695 173.02534 L 305.11695 173.02534 L 305.11695 173.02534 Q 306.02952 171.46093 307.7243 169.04913 L 307.7243 169.04913 L 307.7243 169.04913 Q 309.41908 166.63733 311.30941 164.09516 L 311.30941 164.09516 L 311.30941 164.09516 Q 313.19974 161.55299 314.9597 159.14119 L 314.9597 159.14119 L 314.9597 159.14119 Q 316.71966 156.72939 317.89297 155.29535 L 317.89297 155.29535 L 317.89297 155.29535 Q 320.89143 151.38432 324.47653 146.56072 L 324.47653 146.56072 L 324.47653 146.56072 Q 328.06164 141.73712 331.25565 136.91353 L 331.25565 136.91353 L 331.25565 136.91353 Q 334.44965 132.08993 336.99182 127.7878 L 336.99182 127.7878 L 336.99182 127.7878 Q 339.53398 123.48567 340.44656 120.87832 L 340.44656 120.87832 L 340.44656 120.87832 Q 340.83766 119.44427 340.96803 119.44427 L 340.96803 119.44427 L 340.96803 119.44427 Q 341.0984 119.44427 341.29395 119.90056 L 341.29395 119.90056 L 341.29395 119.90056 Q 341.4895 120.35685 341.4895 121.00868 L 341.4895 121.00868 L 341.4895 121.00868 Q 341.61987 123.87677 340.44656 127.72261 L 340.44656 127.72261 L 340.44656 127.72261 Q 339.27325 131.56846 337.38292 135.47948 L 337.38292 135.47948 L 337.38292 135.47948 Q 335.49259 139.39051 333.34153 142.97562 L 333.34153 142.97562 L 333.34153 142.97562 Q 331.19046 146.56072 329.36532 148.90734 Z  M 290.12468 201.83656 L 290.12468 201.83656 L 290.12468 201.83656 Q 289.08174 204.44392 288.23435 206.66016 L 288.23435 206.66016 L 288.23435 206.66016 Q 287.38697 208.87641 286.73513 210.70156 L 286.73513 210.70156 L 286.73513 210.70156 Q 286.60476 210.96229 286.27884 211.3534 L 286.27884 211.3534 L 286.27884 211.3534 Q 285.95292 211.7445 285.69219 210.70156 L 285.69219 210.70156 L 285.69219 210.70156 Q 285.30108 208.48531 285.69219 205.87796 L 285.69219 205.87796 L 285.69219 205.87796 Q 286.08329 203.27061 287.90844 199.09885 L 287.90844 199.09885 L 287.90844 199.09885 Q 288.56027 197.53444 289.60321 195.51374 L 289.60321 195.51374 L 289.60321 195.51374 Q 290.64615 193.49304 291.81946 191.73308 L 291.81946 191.73308 L 291.81946 191.73308 Q 292.99277 189.97312 293.97053 188.79981 L 293.97053 188.79981 L 293.97053 188.79981 Q 294.94828 187.6265 295.46975 188.0176 L 295.46975 188.0176 L 295.46975 188.0176 Q 295.46975 188.14797 295.20902 188.93018 L 295.20902 188.93018 L 295.20902 188.93018 Q 294.94828 189.71238 294.62236 190.62496 L 294.62236 190.62496 L 294.62236 190.62496 Q 294.29645 191.53753 293.97053 192.38492 L 293.97053 192.38492 L 293.97053 192.38492 Q 293.64461 193.23231 293.51424 193.49304 L 293.51424 193.49304 L 293.51424 193.49304 Q 292.60167 195.97002 291.81946 197.79517 L 291.81946 197.79517 L 291.81946 197.79517 Q 291.03726 199.62032 290.12468 201.83656 Z  M 337.96957 201.57583 L 337.96957 201.57583 L 337.96957 201.57583 Q 340.05545 203.53134 342.07615 205.16094 L 342.07615 205.16094 L 342.07615 205.16094 Q 344.09685 206.79053 346.3131 208.22457 L 346.3131 208.22457 L 346.3131 208.22457 Q 346.57383 208.48531 346.96493 208.81123 L 346.96493 208.81123 L 346.96493 208.81123 Q 347.35604 209.13715 347.22567 209.26751 L 347.22567 209.26751 L 347.22567 209.26751 Q 346.96493 209.52825 346.50865 209.46307 L 346.50865 209.46307 L 346.50865 209.46307 Q 346.05236 209.39788 345.40052 209.26751 L 345.40052 209.26751 L 345.40052 209.26751 Q 344.09685 208.87641 343.05391 208.61568 L 343.05391 208.61568 L 343.05391 208.61568 Q 342.01097 208.35494 340.90284 207.76829 L 340.90284 207.76829 L 340.90284 207.76829 Q 339.79472 207.18163 338.55623 206.26906 L 338.55623 206.26906 L 338.55623 206.26906 Q 337.31774 205.35649 335.75333 203.79208 L 335.75333 203.79208 L 335.75333 203.79208 Q 334.44965 202.4884 332.82006 200.46771 L 332.82006 200.46771 L 332.82006 200.46771 Q 331.19046 198.44701 329.8216 196.42631 L 329.8216 196.42631 L 329.8216 196.42631 Q 328.45274 194.40561 327.67054 192.8412 L 327.67054 192.8412 L 327.67054 192.8412 Q 326.88833 191.27679 327.27944 191.01606 L 327.27944 191.01606 L 327.27944 191.01606 Q 327.4098 190.88569 328.06164 191.40716 L 328.06164 191.40716 L 328.06164 191.40716 Q 328.71348 191.92863 329.36532 192.64565 L 329.36532 192.64565 L 329.36532 192.64565 Q 330.01715 193.36267 330.60381 194.01451 L 330.60381 194.01451 L 330.60381 194.01451 Q 331.19046 194.66635 331.4512 194.92708 L 331.4512 194.92708 L 331.4512 194.92708 Q 333.27634 196.8826 334.84075 198.44701 L 334.84075 198.44701 L 334.84075 198.44701 Q 336.40516 200.01142 337.96957 201.57583 Z " fill-rule="evenodd" fill="rgb(69,90,100)"/><path d=" M 255.4838 238.73864 L 255.4838 216.15967 L 258.22989 216.15967 L 258.22989 224.51999 L 258.22989 224.51999 Q 258.53502 224.18436 258.9927 223.81821 L 258.9927 223.81821 L 258.9927 223.81821 Q 259.45038 223.45207 260.01485 223.1622 L 260.01485 223.1622 L 260.01485 223.1622 Q 260.57933 222.87234 261.28111 222.68927 L 261.28111 222.68927 L 261.28111 222.68927 Q 261.98289 222.50619 262.80671 222.50619 L 262.80671 222.50619 L 262.80671 222.50619 Q 264.17976 222.50619 265.44601 223.05541 L 265.44601 223.05541 L 265.44601 223.05541 Q 266.71227 223.60463 267.6734 224.64204 L 267.6734 224.64204 L 267.6734 224.64204 Q 268.63453 225.67945 269.21426 227.20506 L 269.21426 227.20506 L 269.21426 227.20506 Q 269.79399 228.73067 269.79399 230.65293 L 269.79399 230.65293 L 269.79399 230.65293 Q 269.79399 232.54468 269.18375 234.1008 L 269.18375 234.1008 L 269.18375 234.1008 Q 268.57351 235.65692 267.56661 236.77061 L 267.56661 236.77061 L 267.56661 236.77061 Q 266.55971 237.8843 265.26294 238.49455 L 265.26294 238.49455 L 265.26294 238.49455 Q 263.96617 239.10479 262.62364 239.10479 L 262.62364 239.10479 L 262.62364 239.10479 Q 261.2506 239.10479 260.04537 238.6166 L 260.04537 238.6166 L 260.04537 238.6166 Q 258.84014 238.1284 258.04682 237.42662 L 258.04682 237.42662 L 258.04682 238.73864 L 255.4838 238.73864 Z  M 266.98688 230.74447 L 266.98688 230.74447 L 266.98688 230.74447 Q 266.98688 229.37142 266.60547 228.28824 L 266.60547 228.28824 L 266.60547 228.28824 Q 266.22407 227.20506 265.56806 226.44226 L 265.56806 226.44226 L 265.56806 226.44226 Q 264.91205 225.67945 264.04245 225.2828 L 264.04245 225.2828 L 264.04245 225.2828 Q 263.17286 224.88614 262.19647 224.88614 L 262.19647 224.88614 L 262.19647 224.88614 Q 260.88445 224.88614 259.83178 225.54215 L 259.83178 225.54215 L 259.83178 225.54215 Q 258.77911 226.19816 258.22989 226.96096 L 258.22989 226.96096 L 258.22989 235.44333 L 258.22989 235.44333 Q 258.93167 235.99255 259.87755 236.32819 L 259.87755 236.32819 L 259.87755 236.32819 Q 260.82343 236.66382 261.89135 236.66382 L 261.89135 236.66382 L 261.89135 236.66382 Q 262.98979 236.66382 263.93566 236.23665 L 263.93566 236.23665 L 263.93566 236.23665 Q 264.88154 235.80948 265.55281 235.03142 L 265.55281 235.03142 L 265.55281 235.03142 Q 266.22407 234.25336 266.60547 233.17018 L 266.60547 233.17018 L 266.60547 233.17018 Q 266.98688 232.087 266.98688 230.74447 Z  M 276.3541 222.87234 L 276.3541 238.73864 L 273.60801 238.73864 L 273.60801 222.87234 L 276.3541 222.87234 Z  M 274.98105 220.15676 L 274.98105 220.15676 L 274.98105 220.15676 Q 274.18774 220.15676 273.62326 219.59228 L 273.62326 219.59228 L 273.62326 219.59228 Q 273.05879 219.02781 273.05879 218.23449 L 273.05879 218.23449 L 273.05879 218.23449 Q 273.05879 217.34964 273.57749 216.83094 L 273.57749 216.83094 L 273.57749 216.83094 Q 274.0962 216.31223 274.98105 216.31223 L 274.98105 216.31223 L 274.98105 216.31223 Q 275.77437 216.31223 276.33884 216.8767 L 276.33884 216.8767 L 276.33884 216.8767 Q 276.90332 217.44118 276.90332 218.23449 L 276.90332 218.23449 L 276.90332 218.23449 Q 276.90332 219.11935 276.38461 219.63805 L 276.38461 219.63805 L 276.38461 219.63805 Q 275.8659 220.15676 274.98105 220.15676 Z  M 283.82957 216.15967 L 283.82957 233.49056 L 283.82957 233.49056 Q 283.82957 235.13821 284.51609 235.93153 L 284.51609 235.93153 L 284.51609 235.93153 Q 285.20261 236.72484 286.4231 236.72484 L 286.4231 236.72484 L 286.4231 236.72484 Q 287.00283 236.72484 287.55205 236.58754 L 287.55205 236.58754 L 287.55205 236.58754 Q 288.10127 236.45023 288.52844 236.26716 L 288.52844 236.26716 L 289.1997 238.49455 L 289.1997 238.49455 Q 288.65048 238.73864 287.84191 238.92172 L 287.84191 238.92172 L 287.84191 238.92172 Q 287.03334 239.10479 286.05695 239.10479 L 286.05695 239.10479 L 286.05695 239.10479 Q 284.98903 239.10479 284.08892 238.79967 L 284.08892 238.79967 L 284.08892 238.79967 Q 283.18881 238.49455 282.51755 237.85379 L 282.51755 237.85379 L 282.51755 237.85379 Q 281.84628 237.21304 281.46488 236.20614 L 281.46488 236.20614 L 281.46488 236.20614 Q 281.08348 235.19924 281.08348 233.76517 L 281.08348 233.76517 L 281.08348 216.15967 L 283.82957 216.15967 Z  M 294.38676 216.15967 L 294.38676 233.49056 L 294.38676 233.49056 Q 294.38676 235.13821 295.07329 235.93153 L 295.07329 235.93153 L 295.07329 235.93153 Q 295.75981 236.72484 296.9803 236.72484 L 296.9803 236.72484 L 296.9803 236.72484 Q 297.56003 236.72484 298.10924 236.58754 L 298.10924 236.58754 L 298.10924 236.58754 Q 298.65846 236.45023 299.08563 236.26716 L 299.08563 236.26716 L 299.7569 238.49455 L 299.7569 238.49455 Q 299.20768 238.73864 298.39911 238.92172 L 298.39911 238.92172 L 298.39911 238.92172 Q 297.59054 239.10479 296.61415 239.10479 L 296.61415 239.10479 L 296.61415 239.10479 Q 295.54623 239.10479 294.64612 238.79967 L 294.64612 238.79967 L 294.64612 238.79967 Q 293.74601 238.49455 293.07474 237.85379 L 293.07474 237.85379 L 293.07474 237.85379 Q 292.40348 237.21304 292.02207 236.20614 L 292.02207 236.20614 L 292.02207 236.20614 Q 291.64067 235.19924 291.64067 233.76517 L 291.64067 233.76517 L 291.64067 216.15967 L 294.38676 216.15967 Z  M 302.35043 238.73864 L 302.35043 216.15967 L 305.09652 216.15967 L 305.09652 224.51999 L 305.09652 224.51999 Q 305.40164 224.18436 305.85932 223.81821 L 305.85932 223.81821 L 305.85932 223.81821 Q 306.31701 223.45207 306.88148 223.1622 L 306.88148 223.1622 L 306.88148 223.1622 Q 307.44596 222.87234 308.14773 222.68927 L 308.14773 222.68927 L 308.14773 222.68927 Q 308.84951 222.50619 309.67334 222.50619 L 309.67334 222.50619 L 309.67334 222.50619 Q 311.04639 222.50619 312.31264 223.05541 L 312.31264 223.05541 L 312.31264 223.05541 Q 313.57889 223.60463 314.54002 224.64204 L 314.54002 224.64204 L 314.54002 224.64204 Q 315.50116 225.67945 316.08089 227.20506 L 316.08089 227.20506 L 316.08089 227.20506 Q 316.66062 228.73067 316.66062 230.65293 L 316.66062 230.65293 L 316.66062 230.65293 Q 316.66062 232.54468 316.05037 234.1008 L 316.05037 234.1008 L 316.05037 234.1008 Q 315.44013 235.65692 314.43323 236.77061 L 314.43323 236.77061 L 314.43323 236.77061 Q 313.42633 237.8843 312.12957 238.49455 L 312.12957 238.49455 L 312.12957 238.49455 Q 310.8328 239.10479 309.49027 239.10479 L 309.49027 239.10479 L 309.49027 239.10479 Q 308.11722 239.10479 306.91199 238.6166 L 306.91199 238.6166 L 306.91199 238.6166 Q 305.70676 238.1284 304.91345 237.42662 L 304.91345 237.42662 L 304.91345 238.73864 L 302.35043 238.73864 Z  M 313.8535 230.74447 L 313.8535 230.74447 L 313.8535 230.74447 Q 313.8535 229.37142 313.4721 228.28824 L 313.4721 228.28824 L 313.4721 228.28824 Q 313.0907 227.20506 312.43469 226.44226 L 312.43469 226.44226 L 312.43469 226.44226 Q 311.77868 225.67945 310.90908 225.2828 L 310.90908 225.2828 L 310.90908 225.2828 Q 310.03949 224.88614 309.0631 224.88614 L 309.0631 224.88614 L 309.0631 224.88614 Q 307.75108 224.88614 306.69841 225.54215 L 306.69841 225.54215 L 306.69841 225.54215 Q 305.64574 226.19816 305.09652 226.96096 L 305.09652 226.96096 L 305.09652 235.44333 L 305.09652 235.44333 Q 305.7983 235.99255 306.74418 236.32819 L 306.74418 236.32819 L 306.74418 236.32819 Q 307.69005 236.66382 308.75798 236.66382 L 308.75798 236.66382 L 308.75798 236.66382 Q 309.85641 236.66382 310.80229 236.23665 L 310.80229 236.23665 L 310.80229 236.23665 Q 311.74816 235.80948 312.41943 235.03142 L 312.41943 235.03142 L 312.41943 235.03142 Q 313.0907 234.25336 313.4721 233.17018 L 313.4721 233.17018 L 313.4721 233.17018 Q 313.8535 232.087 313.8535 230.74447 Z  M 332.25231 230.80549 L 332.25231 230.80549 L 332.25231 230.80549 Q 332.25231 229.61552 331.87091 228.54759 L 331.87091 228.54759 L 331.87091 228.54759 Q 331.48951 227.47967 330.80299 226.68635 L 330.80299 226.68635 L 330.80299 226.68635 Q 330.11647 225.89304 329.18585 225.4201 L 329.18585 225.4201 L 329.18585 225.4201 Q 328.25523 224.94716 327.15679 224.94716 L 327.15679 224.94716 L 327.15679 224.94716 Q 324.74633 224.94716 323.4038 226.53379 L 323.4038 226.53379 L 323.4038 226.53379 Q 322.06126 228.12042 322.06126 230.74447 L 322.06126 230.74447 L 322.06126 230.74447 Q 322.06126 231.93444 322.44267 233.01762 L 322.44267 233.01762 L 322.44267 233.01762 Q 322.82407 234.1008 323.51059 234.90937 L 323.51059 234.90937 L 323.51059 234.90937 Q 324.19711 235.71794 325.12773 236.19088 L 325.12773 236.19088 L 325.12773 236.19088 Q 326.05835 236.66382 327.15679 236.66382 L 327.15679 236.66382 L 327.15679 236.66382 Q 328.34676 236.66382 329.29264 236.23665 L 329.29264 236.23665 L 329.29264 236.23665 Q 330.23851 235.80948 330.89452 235.03142 L 330.89452 235.03142 L 330.89452 235.03142 Q 331.55054 234.25336 331.90142 233.18544 L 331.90142 233.18544 L 331.90142 233.18544 Q 332.25231 232.11751 332.25231 230.80549 Z  M 319.25415 230.80549 L 319.25415 230.80549 L 319.25415 230.80549 Q 319.25415 228.88323 319.86439 227.34236 L 319.86439 227.34236 L 319.86439 227.34236 Q 320.47463 225.8015 321.5273 224.73358 L 321.5273 224.73358 L 321.5273 224.73358 Q 322.57997 223.66565 324.0293 223.08592 L 324.0293 223.08592 L 324.0293 223.08592 Q 325.47862 222.50619 327.15679 222.50619 L 327.15679 222.50619 L 327.15679 222.50619 Q 328.80444 222.50619 330.25377 223.08592 L 330.25377 223.08592 L 330.25377 223.08592 Q 331.7031 223.66565 332.77102 224.73358 L 332.77102 224.73358 L 332.77102 224.73358 Q 333.83894 225.8015 334.44919 227.32711 L 334.44919 227.32711 L 334.44919 227.32711 Q 335.05943 228.85271 335.05943 230.74447 L 335.05943 230.74447 L 335.05943 230.74447 Q 335.05943 232.63622 334.46444 234.17708 L 334.46444 234.17708 L 334.46444 234.17708 Q 333.86946 235.71794 332.80153 236.81638 L 332.80153 236.81638 L 332.80153 236.81638 Q 331.73361 237.91482 330.28428 238.5098 L 330.28428 238.5098 L 330.28428 238.5098 Q 328.83496 239.10479 327.15679 239.10479 L 327.15679 239.10479 L 327.15679 239.10479 Q 325.44811 239.10479 323.99878 238.49455 L 323.99878 238.49455 L 323.99878 238.49455 Q 322.54946 237.8843 321.49679 236.78587 L 321.49679 236.78587 L 321.49679 236.78587 Q 320.44412 235.68743 319.84913 234.16182 L 319.84913 234.16182 L 319.84913 234.16182 Q 319.25415 232.63622 319.25415 230.80549 Z  M 337.65296 230.89703 L 337.65296 230.89703 L 337.65296 230.89703 Q 337.65296 229.12732 338.20218 227.58646 L 338.20218 227.58646 L 338.20218 227.58646 Q 338.7514 226.0456 339.74304 224.91665 L 339.74304 224.91665 L 339.74304 224.91665 Q 340.73469 223.7877 342.12299 223.14695 L 342.12299 223.14695 L 342.12299 223.14695 Q 343.51129 222.50619 345.15894 222.50619 L 345.15894 222.50619 L 345.15894 222.50619 Q 346.53199 222.50619 347.64568 222.97913 L 347.64568 222.97913 L 347.64568 222.97913 Q 348.75937 223.45207 349.5832 224.15385 L 349.5832 224.15385 L 349.5832 222.87234 L 352.0852 222.87234 L 352.0852 234.89412 L 352.0852 234.89412 Q 352.0852 236.05358 352.64967 236.40447 L 352.64967 236.40447 L 352.64967 236.40447 Q 353.21414 236.75536 353.88541 236.75536 L 353.88541 236.75536 L 353.30568 238.8912 L 353.30568 238.8912 Q 350.37652 238.8912 349.76627 236.51126 L 349.76627 236.51126 L 349.76627 236.51126 Q 349.40013 236.99945 348.92719 237.47239 L 348.92719 237.47239 L 348.92719 237.47239 Q 348.45425 237.94533 347.84401 238.31147 L 347.84401 238.31147 L 347.84401 238.31147 Q 347.23377 238.67762 346.47096 238.8912 L 346.47096 238.8912 L 346.47096 238.8912 Q 345.70816 239.10479 344.7928 239.10479 L 344.7928 239.10479 L 344.7928 239.10479 Q 343.2977 239.10479 342.00094 238.52506 L 342.00094 238.52506 L 342.00094 238.52506 Q 340.70417 237.94533 339.74304 236.8774 L 339.74304 236.8774 L 339.74304 236.8774 Q 338.78191 235.80948 338.21743 234.29913 L 338.21743 234.29913 L 338.21743 234.29913 Q 337.65296 232.78878 337.65296 230.89703 Z  M 345.40304 236.66382 L 345.40304 236.66382 L 345.40304 236.66382 Q 346.5625 236.66382 347.59991 236.1146 L 347.59991 236.1146 L 347.59991 236.1146 Q 348.63733 235.56538 349.3391 234.68053 L 349.3391 234.68053 L 349.3391 226.16765 L 349.3391 226.16765 Q 348.51528 225.58792 347.52363 225.23703 L 347.52363 225.23703 L 347.52363 225.23703 Q 346.53199 224.88614 345.43355 224.88614 L 345.43355 224.88614 L 345.43355 224.88614 Q 344.33512 224.88614 343.41975 225.31331 L 343.41975 225.31331 L 343.41975 225.31331 Q 342.50439 225.74048 341.84838 226.51854 L 341.84838 226.51854 L 341.84838 226.51854 Q 341.19237 227.2966 340.82622 228.39503 L 340.82622 228.39503 L 340.82622 228.39503 Q 340.46008 229.49347 340.46008 230.80549 L 340.46008 230.80549 L 340.46008 230.80549 Q 340.46008 232.087 340.82622 233.17018 L 340.82622 233.17018 L 340.82622 233.17018 Q 341.19237 234.25336 341.86363 235.03142 L 341.86363 235.03142 L 341.86363 235.03142 Q 342.5349 235.80948 343.43501 236.23665 L 343.43501 236.23665 L 343.43501 236.23665 Q 344.33512 236.66382 345.40304 236.66382 Z  M 366.97511 222.68927 L 366.15129 225.52689 L 366.15129 225.52689 Q 365.57156 225.2828 364.77824 225.2828 L 364.77824 225.2828 L 364.77824 225.2828 Q 363.9239 225.2828 363.11533 225.64894 L 363.11533 225.64894 L 363.11533 225.64894 Q 362.30676 226.01509 361.68126 226.74738 L 361.68126 226.74738 L 361.68126 226.74738 Q 361.05576 227.47967 360.67436 228.62387 L 360.67436 228.62387 L 360.67436 228.62387 Q 360.29296 229.76808 360.29296 231.3242 L 360.29296 231.3242 L 360.29296 238.73864 L 357.54687 238.73864 L 357.54687 222.87234 L 360.20142 222.87234 L 360.20142 226.32021 L 360.20142 226.32021 Q 360.47603 225.58792 360.93371 224.88614 L 360.93371 224.88614 L 360.93371 224.88614 Q 361.39139 224.18436 362.01689 223.66565 L 362.01689 223.66565 L 362.01689 223.66565 Q 362.64239 223.14695 363.46622 222.82657 L 363.46622 222.82657 L 363.46622 222.82657 Q 364.29005 222.50619 365.29695 222.50619 L 365.29695 222.50619 L 365.29695 222.50619 Q 365.75463 222.50619 366.19705 222.55196 L 366.19705 222.55196 L 366.19705 222.55196 Q 366.63948 222.59773 366.97511 222.68927 L 366.97511 222.68927 Z  M 375.73209 239.10479 L 375.73209 239.10479 L 375.73209 239.10479 Q 374.26751 239.10479 372.97075 238.52506 L 372.97075 238.52506 L 372.97075 238.52506 Q 371.67398 237.94533 370.71285 236.8774 L 370.71285 236.8774 L 370.71285 236.8774 Q 369.75172 235.80948 369.2025 234.29913 L 369.2025 234.29913 L 369.2025 234.29913 Q 368.65328 232.78878 368.65328 230.89703 L 368.65328 230.89703 L 368.65328 230.89703 Q 368.65328 229.09681 369.21776 227.55595 L 369.21776 227.55595 L 369.21776 227.55595 Q 369.78223 226.01509 370.74336 224.90139 L 370.74336 224.90139 L 370.74336 224.90139 Q 371.70449 223.7877 372.986 223.14695 L 372.986 223.14695 L 372.986 223.14695 Q 374.26751 222.50619 375.70158 222.50619 L 375.70158 222.50619 L 375.70158 222.50619 Q 377.28821 222.50619 378.43242 223.14695 L 378.43242 223.14695 L 378.43242 223.14695 Q 379.57662 223.7877 380.21738 224.45897 L 380.21738 224.45897 L 380.21738 216.15967 L 382.96347 216.15967 L 382.96347 234.89412 L 382.96347 234.89412 Q 382.96347 236.05358 383.52794 236.40447 L 383.52794 236.40447 L 383.52794 236.40447 Q 384.09242 236.75536 384.76368 236.75536 L 384.76368 236.75536 L 384.18395 238.8912 L 384.18395 238.8912 Q 381.2853 238.8912 380.64455 236.57228 L 380.64455 236.57228 L 380.64455 236.57228 Q 379.94277 237.54867 378.75279 238.32673 L 378.75279 238.32673 L 378.75279 238.32673 Q 377.56282 239.10479 375.73209 239.10479 Z  M 376.34234 236.66382 L 376.34234 236.66382 L 376.34234 236.66382 Q 377.47129 236.66382 378.49344 236.12986 L 378.49344 236.12986 L 378.49344 236.12986 Q 379.5156 235.59589 380.21738 234.74156 L 380.21738 234.74156 L 380.21738 226.86943 L 380.21738 226.86943 Q 379.63765 226.13714 378.61549 225.51164 L 378.61549 225.51164 L 378.61549 225.51164 Q 377.59333 224.88614 376.31182 224.88614 L 376.31182 224.88614 L 376.31182 224.88614 Q 375.21339 224.88614 374.31328 225.34382 L 374.31328 225.34382 L 374.31328 225.34382 Q 373.41317 225.8015 372.77242 226.59482 L 372.77242 226.59482 L 372.77242 226.59482 Q 372.13166 227.38813 371.79603 228.47131 L 371.79603 228.47131 L 371.79603 228.47131 Q 371.4604 229.55449 371.4604 230.80549 L 371.4604 230.80549 L 371.4604 230.80549 Q 371.4604 232.087 371.82654 233.15492 L 371.82654 233.15492 L 371.82654 233.15492 Q 372.19269 234.22285 372.8487 235.00091 L 372.8487 235.00091 L 372.8487 235.00091 Q 373.50471 235.77897 374.40482 236.22139 L 374.40482 236.22139 L 374.40482 236.22139 Q 375.30492 236.66382 376.34234 236.66382 Z " fill-rule="evenodd" fill="rgb(69,90,100)"/></g><defs><filter id="9DK1T4WCNgwl7k42dkte7NAn1kIn8w0T" x="-200%" y="-200%" width="400%" height="400%"><feOffset xmlns="http://www.w3.org/2000/svg" in="SourceAlpha" result="offOut" dx="0" dy="10"/><feGaussianBlur xmlns="http://www.w3.org/2000/svg" in="offOut" result="blurOut" stdDeviation="8.5"/><feComponentTransfer xmlns="http://www.w3.org/2000/svg" in="blurOut" result="opacOut"><feFuncA xmlns="http://www.w3.org/2000/svg" type="table" tableValues="0 0.5"/></feComponentTransfer><feBlend xmlns="http://www.w3.org/2000/svg" in="SourceGraphic" in2="opacOut" mode="normal"/></filter></defs></g></g></svg>